<svg width="118" height="118" viewBox="0 0 118 118" fill="none" xmlns="http://www.w3.org/2000/svg">
<g clip-path="url(#clip0)">
<g filter="url(#filter0_d)">
<path d="M102.84 0H14.28C6.39337 0 0 6.39337 0 14.28V102.84C0 110.727 6.39337 117.12 14.28 117.12H102.84C110.727 117.12 117.12 110.727 117.12 102.84V14.28C117.12 6.39337 110.727 0 102.84 0Z" fill="#F0A410"/>
<path d="M96.2701 7.04004H20.8501C12.9634 7.04004 6.57007 13.4334 6.57007 21.32V96.74C6.57007 104.627 12.9634 111.02 20.8501 111.02H96.2701C104.157 111.02 110.55 104.627 110.55 96.74V21.32C110.55 13.4334 104.157 7.04004 96.2701 7.04004Z" fill="#08191F"/>
<path d="M58.5601 68.73C63.9173 68.73 68.2601 64.3871 68.2601 59.03C68.2601 53.6728 63.9173 49.33 58.5601 49.33C53.2029 49.33 48.8601 53.6728 48.8601 59.03C48.8601 64.3871 53.2029 68.73 58.5601 68.73Z" fill="#F0A410"/>
</g>
</g>
<defs>
<filter id="filter0_d" x="-20" y="-16" width="157.12" height="157.12" filterUnits="userSpaceOnUse" color-interpolation-filters="sRGB">
<feFlood flood-opacity="0" result="BackgroundImageFix"/>
<feColorMatrix in="SourceAlpha" type="matrix" values="0 0 0 0 0 0 0 0 0 0 0 0 0 0 0 0 0 0 127 0" result="hardAlpha"/>
<feOffset dy="4"/>
<feGaussianBlur stdDeviation="10"/>
<feComposite in2="hardAlpha" operator="out"/>
<feColorMatrix type="matrix" values="0 0 0 0 0.941667 0 0 0 0 0.642844 0 0 0 0 0.0627778 0 0 0 1 0"/>
<feBlend mode="normal" in2="BackgroundImageFix" result="effect1_dropShadow"/>
<feBlend mode="normal" in="SourceGraphic" in2="effect1_dropShadow" result="shape"/>
</filter>
<clipPath id="clip0">
<rect width="117.12" height="117.12" rx="18" fill="white"/>
</clipPath>
</defs>
</svg>
