<svg width="35" height="35" viewBox="0 0 35 35" fill="none" xmlns="http://www.w3.org/2000/svg">
<path d="M19.1625 0V0.035V3.535C26.845 4.48 32.2875 11.4625 31.3425 19.145C30.5375 25.515 25.5325 30.5725 19.1625 31.325V34.825C28.7875 33.8625 35.7875 25.3225 34.825 15.6975C34.0375 7.385 27.44 0.8225 19.1625 0ZM15.6625 0.0524999C12.25 0.385 8.995 1.6975 6.335 3.9025L8.8375 6.4925C10.7975 4.9175 13.16 3.9025 15.6625 3.5525V0.0524999ZM3.8675 6.37C1.6625 9.03 0.35 12.2675 0 15.6975H3.5C3.8325 13.2125 4.8125 10.85 6.37 8.8725L3.8675 6.37ZM0.0175 19.1975C0.3675 22.6275 1.715 25.865 3.885 28.525L6.37 26.0225C4.83 24.045 3.8325 21.6825 3.5175 19.1975H0.0175ZM8.8375 28.595L6.335 30.9925C8.9775 33.1975 12.2325 34.58 15.6625 34.9475V31.4475C13.1775 31.1325 10.815 30.135 8.8375 28.595ZM18.2875 8.6975V17.885L26.1625 22.5575L24.85 24.71L15.6625 19.1975V8.6975H18.2875Z" fill="#5F10E0"/>
</svg>
