<svg width="110" height="156" viewBox="0 0 156 156" fill="none" xmlns="http://www.w3.org/2000/svg">
<path d="M78 138.328C111.272 138.328 138.328 111.272 138.328 78C138.328 44.7281 111.272 17.6719 78 17.6719C44.7281 17.6719 17.6719 44.7281 17.6719 78C17.6719 111.272 44.7281 138.328 78 138.328ZM78 22.5469C108.591 22.5469 133.453 47.4094 133.453 78C133.453 108.591 108.591 133.453 78 133.453C47.4094 133.453 22.5469 108.591 22.5469 78C22.5469 47.4094 47.4094 22.5469 78 22.5469Z" fill="#F0A410"/>
<path d="M132.113 141.862V123.825L127.969 127.969C106.153 149.784 73.125 154.903 45.7031 140.887L43.5094 145.275C54.4781 150.881 66.3 153.684 78 153.684C95.7938 153.684 113.222 147.347 127.238 135.403V141.984H132.113V141.862Z" fill="#F0A410"/>
<path d="M14.1376 127.237V132.112H32.1751L28.0313 127.969C6.33757 106.397 1.09694 73.4906 14.8688 46.1906L10.4813 43.9968C-3.29056 71.4187 0.853191 104.203 20.7188 127.237H14.1376Z" fill="#F0A410"/>
<path d="M141.009 110.053L145.397 112.247C159.413 84.7031 155.269 51.7969 135.281 28.6406H147.956V23.7656H123.825L127.969 28.0312C149.663 49.725 154.903 82.7531 141.009 110.053Z" fill="#F0A410"/>
<path d="M110.053 14.9906L112.247 10.6031C84.7032 -3.4125 51.7969 0.731252 28.7626 20.7188V14.1375H23.8876V32.175L28.0313 28.0313C49.7251 6.3375 82.7532 1.09688 110.053 14.9906Z" fill="#F0A410"/>
<path d="M80.4375 29.7375H75.5625V33.6376H80.4375V29.7375Z" fill="#F0A410"/>
<path d="M126.263 75.5625H122.363V80.4375H126.263V75.5625Z" fill="#F0A410"/>
<path d="M80.4375 122.363H75.5625V126.263H80.4375V122.363Z" fill="#F0A410"/>
<path d="M33.6375 75.5625H29.7375V80.4375H33.6375V75.5625Z" fill="#F0A410"/>
<path d="M75.5626 87.6281H80.4376V80.4375H103.106V75.5625H80.4376V40.8281H75.5626V75.5625H68.3719V80.4375H75.5626V87.6281Z" fill="#F0A410"/>
</svg>
