<svg width="45" height="45" viewBox="0 0 45 45" fill="none" xmlns="http://www.w3.org/2000/svg">
<g clip-path="url(#clip0)">
<path d="M22.4998 19.7717C23.2054 19.7717 23.7817 20.3465 23.7817 21.0521C23.7817 21.696 24.305 22.2179 24.9489 22.2179C25.5913 22.2179 26.1147 21.696 26.1147 21.0521C26.1147 19.4703 25.0842 18.1355 23.6655 17.6474V16.9859C23.6655 16.3434 23.1437 15.8186 22.4998 15.8186C21.8544 15.8186 21.3325 16.3434 21.3325 16.9859V17.6474C19.9139 18.1355 18.8863 19.4703 18.8863 21.0521C18.8863 23.047 20.5064 24.667 22.4998 24.667C23.2054 24.667 23.7817 25.2433 23.7817 25.9489C23.7817 26.656 23.2054 27.2308 22.4998 27.2308C21.7941 27.2308 21.2193 26.656 21.2193 25.9489C21.2193 25.305 20.696 24.7817 20.0521 24.7817C19.4067 24.7817 18.8863 25.305 18.8863 25.9489C18.8863 27.5307 19.9139 28.8641 21.3325 29.3521V30.0137C21.3325 30.659 21.8544 31.1824 22.4998 31.1824C23.1437 31.1824 23.6655 30.659 23.6655 30.0137V29.3521C25.0842 28.8641 26.1147 27.5307 26.1147 25.9489C26.1147 23.9555 24.4932 22.334 22.4998 22.334C21.7941 22.334 21.2193 21.7592 21.2193 21.0521C21.2193 20.3465 21.7941 19.7717 22.4998 19.7717ZM32.2743 29.9784C32.8462 30.2798 33.5503 30.0607 33.8502 29.4933C34.8205 27.6601 35.3321 25.5873 35.3321 23.4998C35.3321 16.4258 29.5738 10.669 22.4998 10.669C15.4243 10.669 9.66749 16.4258 9.66749 23.4998C9.66749 30.5752 15.4243 36.3321 22.4998 36.3321C24.5564 36.3321 26.5998 35.8352 28.4095 34.8929C28.9813 34.5974 29.2033 33.8903 28.9064 33.3199C28.6094 32.7509 27.9052 32.5246 27.3319 32.823C25.8339 33.6051 24.2065 34.0005 22.4998 34.0005C16.7106 34.0005 11.999 29.2904 11.999 23.4998C11.999 17.7121 16.7106 13.0005 22.4998 13.0005C28.2889 13.0005 33.0005 17.7121 33.0005 23.4998C33.0005 25.2095 32.5801 26.9045 31.7892 28.401C31.4863 28.9714 31.7039 29.677 32.2743 29.9784ZM22.4998 6C19.1201 6 15.8389 6.96731 13.0119 8.79461C12.4694 9.14449 12.3151 9.8663 12.665 10.4073C13.0163 10.9483 13.7352 11.1012 14.2791 10.7542C16.7253 9.17242 19.5714 8.33448 22.4998 8.33448C30.863 8.33448 37.6651 15.138 37.6651 23.4998C37.6651 31.863 30.863 38.6665 22.4998 38.6665C14.1365 38.6665 7.33301 31.863 7.33301 23.4998C7.33301 20.5993 8.15478 17.7782 9.71159 15.3453C10.0585 14.8013 9.89976 14.0795 9.35583 13.7326C8.81337 13.3857 8.09157 13.5444 7.7461 14.0869C5.94967 16.8962 5 20.1539 5 23.4998C5 33.1508 12.8487 40.9995 22.4998 40.9995C32.1493 40.9995 39.9995 33.1508 39.9995 23.4998C39.9995 13.8517 32.1493 6 22.4998 6Z" fill="#5F10E0"/>
</g>
<defs>
<clipPath id="clip0">
<rect width="45" height="45" fill="white"/>
</clipPath>
</defs>
</svg>
