<svg width="15" height="25" viewBox="0 0 19 25" fill="none" xmlns="http://www.w3.org/2000/svg">
<path d="M19 4.99994V23.4999C19 24.3309 18.331 24.9999 17.5 24.9999H1.50002C0.66901 24.9999 0 24.3309 0 23.4999V1.49994C0 0.668939 0.66901 0 1.50002 0H14" fill="#5F10E0"/>
<path d="M14 0V3.49994C14 4.33094 14.669 4.99994 15.5 4.99994H19L14 0Z" fill="#E3E3E3"/>
<path fill-rule="evenodd" clip-rule="evenodd" d="M4.00785 10.4993C3.9416 10.4984 3.87582 10.5106 3.81433 10.5353C3.75285 10.56 3.69689 10.5967 3.6497 10.6432C3.60252 10.6898 3.56505 10.7452 3.53948 10.8063C3.5139 10.8675 3.50073 10.9331 3.50073 10.9993C3.50073 11.0656 3.5139 11.1312 3.53948 11.1923C3.56505 11.2534 3.60252 11.3089 3.6497 11.3554C3.69689 11.4019 3.75285 11.4386 3.81433 11.4633C3.87582 11.488 3.9416 11.5003 4.00785 11.4993C4.07411 11.5003 4.13989 11.488 4.20138 11.4633C4.26286 11.4386 4.31882 11.4019 4.366 11.3554C4.41319 11.3089 4.45066 11.2534 4.47623 11.1923C4.50181 11.1312 4.51498 11.0656 4.51498 10.9993C4.51498 10.9331 4.50181 10.8675 4.47623 10.8063C4.45066 10.7452 4.41319 10.6898 4.366 10.6432C4.31882 10.5967 4.26286 10.56 4.20138 10.5353C4.13989 10.5106 4.07411 10.4984 4.00785 10.4993ZM6.00785 10.4993C5.9416 10.4984 5.87582 10.5106 5.81433 10.5353C5.75285 10.56 5.69689 10.5967 5.6497 10.6432C5.60252 10.6898 5.56505 10.7452 5.53948 10.8063C5.5139 10.8675 5.50073 10.9331 5.50073 10.9993C5.50073 11.0656 5.5139 11.1312 5.53948 11.1923C5.56505 11.2534 5.60252 11.3089 5.6497 11.3554C5.69689 11.4019 5.75285 11.4386 5.81433 11.4633C5.87582 11.488 5.9416 11.5003 6.00785 11.4993H10.6329H15C15.0663 11.5003 15.1321 11.488 15.1936 11.4633C15.255 11.4386 15.311 11.4019 15.3582 11.3554C15.4054 11.3089 15.4428 11.2534 15.4684 11.1923C15.494 11.1312 15.5072 11.0656 15.5072 10.9993C15.5072 10.9331 15.494 10.8675 15.4684 10.8063C15.4428 10.7452 15.4054 10.6898 15.3582 10.6432C15.311 10.5967 15.255 10.56 15.1936 10.5353C15.1321 10.5106 15.0663 10.4984 15 10.4993H10.6329H6.00785Z" fill="#F9F9F9"/>
<path fill-rule="evenodd" clip-rule="evenodd" d="M4.00785 12.4993C3.9416 12.4984 3.87582 12.5106 3.81433 12.5353C3.75285 12.56 3.69689 12.5967 3.6497 12.6432C3.60252 12.6898 3.56505 12.7452 3.53948 12.8063C3.5139 12.8675 3.50073 12.9331 3.50073 12.9993C3.50073 13.0656 3.5139 13.1312 3.53948 13.1923C3.56505 13.2534 3.60252 13.3089 3.6497 13.3554C3.69689 13.4019 3.75285 13.4386 3.81433 13.4633C3.87582 13.488 3.9416 13.5003 4.00785 13.4993C4.07411 13.5003 4.13989 13.488 4.20138 13.4633C4.26286 13.4386 4.31882 13.4019 4.366 13.3554C4.41319 13.3089 4.45066 13.2534 4.47623 13.1923C4.50181 13.1312 4.51498 13.0656 4.51498 12.9993C4.51498 12.9331 4.50181 12.8675 4.47623 12.8063C4.45066 12.7452 4.41319 12.6898 4.366 12.6432C4.31882 12.5967 4.26286 12.56 4.20138 12.5353C4.13989 12.5106 4.07411 12.4984 4.00785 12.4993ZM6.00785 12.4993C5.9416 12.4984 5.87582 12.5106 5.81433 12.5353C5.75285 12.56 5.69689 12.5967 5.6497 12.6432C5.60252 12.6898 5.56505 12.7452 5.53948 12.8063C5.5139 12.8675 5.50073 12.9331 5.50073 12.9993C5.50073 13.0656 5.5139 13.1312 5.53948 13.1923C5.56505 13.2534 5.60252 13.3089 5.6497 13.3554C5.69689 13.4019 5.75285 13.4386 5.81433 13.4633C5.87582 13.488 5.9416 13.5003 6.00785 13.4993H10.6329H15C15.0663 13.5003 15.1321 13.488 15.1936 13.4633C15.255 13.4386 15.311 13.4019 15.3582 13.3554C15.4054 13.3089 15.4428 13.2534 15.4684 13.1923C15.494 13.1312 15.5072 13.0656 15.5072 12.9993C15.5072 12.9331 15.494 12.8675 15.4684 12.8063C15.4428 12.7452 15.4054 12.6898 15.3582 12.6432C15.311 12.5967 15.255 12.56 15.1936 12.5353C15.1321 12.5106 15.0663 12.4984 15 12.4993H10.6329H6.00785Z" fill="#F9F9F9"/>
<path fill-rule="evenodd" clip-rule="evenodd" d="M4.00785 14.4993C3.9416 14.4984 3.87582 14.5106 3.81433 14.5353C3.75285 14.56 3.69689 14.5967 3.6497 14.6432C3.60252 14.6898 3.56505 14.7452 3.53948 14.8063C3.5139 14.8675 3.50073 14.9331 3.50073 14.9993C3.50073 15.0656 3.5139 15.1312 3.53948 15.1923C3.56505 15.2534 3.60252 15.3089 3.6497 15.3554C3.69689 15.4019 3.75285 15.4386 3.81433 15.4633C3.87582 15.488 3.9416 15.5003 4.00785 15.4993C4.07411 15.5003 4.13989 15.488 4.20138 15.4633C4.26286 15.4386 4.31882 15.4019 4.366 15.3554C4.41319 15.3089 4.45066 15.2534 4.47623 15.1923C4.50181 15.1312 4.51498 15.0656 4.51498 14.9993C4.51498 14.9331 4.50181 14.8675 4.47623 14.8063C4.45066 14.7452 4.41319 14.6898 4.366 14.6432C4.31882 14.5967 4.26286 14.56 4.20138 14.5353C4.13989 14.5106 4.07411 14.4984 4.00785 14.4993ZM6.00785 14.4993C5.9416 14.4984 5.87582 14.5106 5.81433 14.5353C5.75285 14.56 5.69689 14.5967 5.6497 14.6432C5.60252 14.6898 5.56505 14.7452 5.53948 14.8063C5.5139 14.8675 5.50073 14.9331 5.50073 14.9993C5.50073 15.0656 5.5139 15.1312 5.53948 15.1923C5.56505 15.2534 5.60252 15.3089 5.6497 15.3554C5.69689 15.4019 5.75285 15.4386 5.81433 15.4633C5.87582 15.488 5.9416 15.5003 6.00785 15.4993H10.6329H15C15.0663 15.5003 15.1321 15.488 15.1936 15.4633C15.255 15.4386 15.311 15.4019 15.3582 15.3554C15.4054 15.3089 15.4428 15.2534 15.4684 15.1923C15.494 15.1312 15.5072 15.0656 15.5072 14.9993C15.5072 14.9331 15.494 14.8675 15.4684 14.8063C15.4428 14.7452 15.4054 14.6898 15.3582 14.6432C15.311 14.5967 15.255 14.56 15.1936 14.5353C15.1321 14.5106 15.0663 14.4984 15 14.4993H10.6329H6.00785Z" fill="#F9F9F9"/>
</svg>
