<svg width="48" height="48" viewBox="0 0 48 48" fill="none" xmlns="http://www.w3.org/2000/svg">
<path d="M26.8419 18.4781V13.5782C26.842 13.0757 27.0417 12.5938 27.3971 12.2386L33.0812 6.55423C33.2935 6.34215 33.5532 6.18353 33.8388 6.09143C34.1244 5.99934 34.4278 5.9764 34.724 6.0245C35.0202 6.07261 35.3007 6.19038 35.5425 6.36813C35.7843 6.54587 35.9804 6.7785 36.1147 7.04687L37.7271 10.2718L40.9519 11.8824C41.2206 12.0166 41.4535 12.2127 41.6315 12.4547C41.8095 12.6967 41.9274 12.9774 41.9755 13.2739C42.0236 13.5704 42.0006 13.8741 41.9083 14.1599C41.8159 14.4457 41.657 14.7055 41.4445 14.9178L35.7604 20.6022C35.4051 20.9575 34.9233 21.1572 34.4208 21.1573H29.5211L24.392 26.2865C24.0347 26.6317 23.5561 26.8227 23.0593 26.8183C22.5625 26.814 22.0873 26.6148 21.736 26.2635C21.3847 25.9121 21.1854 25.4369 21.1811 24.9401C21.1768 24.4433 21.3678 23.9647 21.7129 23.6073L26.8419 18.4781ZM23.0525 7.89384C23.555 7.89384 24.0369 8.09347 24.3923 8.44881C24.7476 8.80415 24.9472 9.2861 24.9472 9.78863C24.9472 10.2912 24.7476 10.7731 24.3923 11.1284C24.0369 11.4838 23.555 11.6834 23.0525 11.6834C20.4293 11.6834 17.865 12.4613 15.6839 13.9187C13.5028 15.3761 11.8029 17.4476 10.799 19.8712C9.79519 22.2948 9.53253 24.9616 10.0443 27.5345C10.556 30.1074 11.8192 32.4707 13.6741 34.3256C15.529 36.1806 17.8922 37.4438 20.465 37.9556C23.0378 38.4673 25.7045 38.2047 28.128 37.2008C30.5515 36.1969 32.6229 34.4969 34.0803 32.3157C35.5377 30.1346 36.3155 27.5702 36.3155 24.9469C36.3155 24.4444 36.5151 23.9624 36.8705 23.6071C37.2258 23.2518 37.7077 23.0521 38.2102 23.0521C38.7127 23.0521 39.1947 23.2518 39.55 23.6071C39.9053 23.9624 40.105 24.4444 40.105 24.9469C40.105 28.3197 39.1048 31.6167 37.2311 34.4211C35.3573 37.2255 32.6941 39.4112 29.5782 40.7019C26.4622 41.9926 23.0336 42.3303 19.7257 41.6723C16.4179 41.0143 13.3794 39.3902 10.9946 37.0053C8.60973 34.6203 6.98564 31.5818 6.32767 28.2738C5.66969 24.9658 6.00739 21.537 7.29805 18.421C8.58871 15.3049 10.7744 12.6416 13.5786 10.7678C16.3829 8.89399 19.6798 7.89384 23.0525 7.89384ZM23.0525 15.473C23.555 15.473 24.0369 15.6726 24.3923 16.028C24.7476 16.3833 24.9472 16.8652 24.9472 17.3678C24.9472 17.8703 24.7476 18.3522 24.3923 18.7076C24.0369 19.0629 23.555 19.2626 23.0525 19.2626C21.9283 19.2626 20.8293 19.5959 19.8945 20.2205C18.9598 20.8452 18.2312 21.7329 17.801 22.7716C17.3708 23.8103 17.2582 24.9532 17.4775 26.0559C17.6969 27.1585 18.2382 28.1714 19.0332 28.9664C19.8281 29.7613 20.8409 30.3027 21.9436 30.5221C23.0462 30.7414 24.1891 30.6288 25.2277 30.1986C26.2664 29.7683 27.1541 29.0398 27.7787 28.105C28.4033 27.1702 28.7366 26.0712 28.7366 24.9469C28.7366 24.4444 28.9363 23.9624 29.2916 23.6071C29.6469 23.2518 30.1288 23.0521 30.6314 23.0521C31.1339 23.0521 31.6158 23.2518 31.9711 23.6071C32.3265 23.9624 32.5261 24.4444 32.5261 24.9469C32.5261 26.8207 31.9705 28.6524 30.9295 30.2104C29.8885 31.7683 28.4089 32.9826 26.6779 33.6997C24.9468 34.4167 23.042 34.6044 21.2043 34.2388C19.3666 33.8733 17.6785 32.971 16.3536 31.646C15.0287 30.321 14.1265 28.633 13.7609 26.7952C13.3954 24.9574 13.583 23.0525 14.3 21.3214C15.0171 19.5903 16.2313 18.1106 17.7892 17.0696C19.3472 16.0286 21.1788 15.473 23.0525 15.473ZM30.6314 14.3626V17.3678H33.6364L36.9067 14.0974L35.4667 13.3774C35.1009 13.1937 34.8045 12.8966 34.6216 12.5304L33.9016 11.0922L30.6314 14.3626Z" fill="#5F10E0"/>
</svg>
